# 3ds Max Wavefront OBJ Exporter v0.97b - (c)2007 guruware
# File Created: 30.10.2016 17:19:50

#
# object RetopoGroup1
#

v  0.2311 0.7749 -1.0273
v  0.0964 0.3683 -1.0665
v  0.0177 0.6438 -0.9736
v  0.5327 0.5596 -0.8713
v  0.0279 1.2063 -0.5958
v  0.9637 0.7625 -0.6522
v  0.9696 0.4634 -0.2280
v  1.0754 0.3291 -0.9145
v  0.1923 0.1380 -1.3024
v  -0.3814 0.3873 -1.2224
v  -0.7651 0.6730 -1.1577
v  0.0008 0.5118 -1.1328
v  -1.3693 0.4114 -0.0929
v  -0.2956 0.7783 0.8911
v  0.7223 0.8584 0.7215
v  -0.9052 -0.7422 -0.6525
v  0.7923 -0.7001 -0.9199
v  -0.0653 -0.6895 -1.1706
v  -0.3634 -0.0508 -1.1379
v  -0.5724 -0.3787 -1.0887
v  -0.4176 -0.4922 -0.9890
v  0.2497 0.7362 0.7945
v  0.2997 0.5445 0.9440
v  0.3528 0.7059 1.0156
v  0.5825 0.6691 0.8248
v  0.5446 0.6541 0.9617
v  0.5252 0.4995 0.9382
v  0.6516 0.4005 0.9436
v  0.5593 0.4881 1.0536
v  0.9690 -0.1299 0.8813
v  0.1097 -0.3101 1.2156
v  0.8177 0.4154 0.9191
v  -0.4956 -0.5393 0.8498
v  0.1040 -1.2767 -0.1681
v  -0.4163 -0.7697 0.5591
v  -0.4917 -1.1207 -0.8729
v  -0.0875 -0.8365 0.6543
v  -0.2824 -0.6837 0.6910
v  -0.2037 -0.7382 0.7646
v  -0.2359 -0.6782 0.8640
v  -0.3003 -0.5883 0.8009
v  0.0397 -0.7105 0.7149
v  0.0478 -0.5033 1.0700
v  0.1750 -0.5088 1.0386
v  0.1657 -0.5214 0.9252
v  0.1802 -0.9426 0.7719
v  0.3124 -0.9231 0.5851
v  0.6721 -1.2650 0.2174
v  0.9356 -0.9537 0.5091
v  1.3568 -0.9944 0.2497
v  0.8453 0.8016 0.0521
v  1.1144 0.0259 0.6345
v  1.0498 0.5155 0.4683
v  0.9500 0.4052 0.5825
v  1.0143 0.3103 0.4377
v  0.9613 0.5331 0.3684
v  0.9069 0.5615 0.4810
v  1.3354 0.2794 0.1351
v  0.5449 -0.8979 -0.4302
v  0.7623 -0.9691 -0.2806
v  0.6101 -1.1453 -0.4121
v  0.4629 -1.0815 -0.1948
v  0.4151 -0.9863 -0.3528
v  0.2902 -1.3172 -0.3086
v  0.9796 -0.8396 -0.4138
v  0.9504 -0.9999 -0.5555
v  0.6001 -0.8863 -0.7168
v  0.7658 -0.9065 -0.8308
v  0.9929 0.4843 0.2549
v  1.2297 0.7412 0.0821
v  1.0806 0.2930 0.1427
v  1.2094 0.1656 -0.0169
# 72 vertices

vn 0.1919 0.4881 -0.8514
vn 0.2490 0.4750 -0.8440
vn -0.0667 0.5124 -0.8561
vn 0.2804 0.5241 -0.8041
vn -0.0062 0.9605 -0.2783
vn 0.6968 0.6303 -0.3422
vn 0.9699 0.2061 -0.1293
vn 0.7992 0.2043 -0.5653
vn 0.1770 0.1844 -0.9668
vn -0.0628 0.1763 -0.9823
vn -0.4836 0.4544 -0.7481
vn 0.4018 0.3923 -0.8274
vn -0.9560 0.2665 0.1230
vn -0.3502 0.6239 0.6987
vn 0.4596 0.7283 0.5082
vn -0.8069 -0.5194 -0.2814
vn 0.5142 -0.3509 -0.7826
vn -0.0223 -0.4480 -0.8938
vn -0.4514 -0.1924 -0.8714
vn -0.4959 -0.0816 -0.8646
vn -0.3274 -0.3356 -0.8833
vn 0.0578 0.4150 0.9080
vn -0.2088 0.2735 0.9389
vn -0.2355 0.5277 0.8161
vn 0.2644 0.5689 0.7788
vn 0.6669 0.3658 0.6492
vn 0.5060 0.6075 0.6123
vn 0.5392 0.4777 0.6936
vn 0.3609 0.6679 0.6509
vn 0.6021 -0.1269 0.7882
vn -0.0356 -0.2132 0.9764
vn 0.5349 0.2905 0.7934
vn -0.5710 -0.4621 0.6786
vn -0.1881 -0.9611 0.2024
vn -0.4801 -0.7662 0.4271
vn -0.3698 -0.7803 -0.5043
vn -0.2362 -0.5839 0.7767
vn -0.2678 -0.8464 0.4602
vn -0.1901 -0.9812 0.0345
vn -0.5037 -0.5524 0.6642
vn -0.3790 -0.7078 0.5962
vn -0.0334 -0.6483 0.7607
vn -0.0180 -0.7234 0.6902
vn 0.2707 -0.8594 0.4339
vn 0.3830 -0.8620 0.3321
vn -0.3410 -0.8108 0.4758
vn 0.0980 -0.7792 0.6191
vn 0.1541 -0.9760 0.1539
vn 0.2529 -0.5762 0.7772
vn 0.8267 -0.5526 0.1057
vn 0.5651 0.8241 0.0394
vn 0.8560 0.2430 0.4563
vn 0.8780 0.4634 0.1200
vn 0.8633 0.2064 0.4607
vn 0.9426 0.2768 0.1870
vn 0.8733 0.4859 -0.0346
vn 0.7718 0.5025 0.3897
vn 0.7134 0.6910 -0.1167
vn 0.2789 -0.8605 -0.4263
vn 0.3532 -0.8149 -0.4595
vn 0.2323 -0.8153 -0.5304
vn 0.2812 -0.8843 -0.3728
vn 0.0261 -0.8203 -0.5713
vn 0.5508 -0.8088 -0.2061
vn 0.8163 -0.5103 -0.2708
vn 0.6209 -0.7834 0.0262
vn -0.1120 -0.9224 -0.3698
vn 0.0276 -0.6816 -0.7312
vn 0.9253 0.2967 0.2362
vn 0.8858 0.4509 0.1099
vn 0.7351 0.5181 0.4372
vn 0.7614 0.2865 -0.5816
# 72 vertex normals

vt 0.7354 0.2910 0.0000
vt 0.7125 0.3431 0.0000
vt 0.7012 0.3023 0.0000
vt 0.7972 0.3059 0.0000
vt 0.7107 0.2305 0.0000
vt 0.8546 0.2422 0.0000
vt 0.8940 0.1579 0.0000
vt 0.9364 0.3372 0.0000
vt 0.7106 0.3948 0.0000
vt 0.6295 0.3353 0.0000
vt 0.6111 0.3072 0.0000
vt 0.6920 0.3260 0.0000
vt 0.5335 0.2133 0.0000
vt 0.6057 0.0583 0.0000
vt 0.7651 0.0414 0.0000
vt 0.3932 0.3072 0.0000
vt 0.4137 0.8174 0.0000
vt 0.5415 0.7975 0.0000
vt 0.3450 0.9743 0.0000
vt 0.6117 0.5427 0.0000
vt 0.5773 0.3869 0.0000
vt 0.5177 0.4008 0.0000
vt 0.5092 0.4519 0.0000
vt 0.0910 0.5032 0.0000
vt 0.1408 0.5188 0.0000
vt 0.1194 0.5344 0.0000
vt 0.0923 0.5843 0.0000
vt 0.1135 0.5644 0.0000
vt 0.1395 0.5714 0.0000
vt 0.1584 0.6002 0.0000
vt 0.1583 0.5736 0.0000
vt 0.2383 0.6631 0.0000
vt 0.2940 0.5494 0.0000
vt 0.1366 0.3555 0.0000
vt 0.1548 0.6353 0.0000
vt 0.0352 0.6276 0.0000
vt 0.4123 0.0793 0.0000
vt 0.4056 0.4752 0.0000
vt 0.5940 0.6521 0.0000
vt 0.4354 0.6841 0.0000
vt 0.4336 0.5498 0.0000
vt 0.5383 0.7077 0.0000
vt 0.3910 0.5837 0.0000
vt 0.4002 0.5430 0.0000
vt 0.3832 0.5500 0.0000
vt 0.3766 0.5369 0.0000
vt 0.3882 0.5188 0.0000
vt 0.3640 0.5826 0.0000
vt 0.3255 0.5538 0.0000
vt 0.3187 0.5702 0.0000
vt 0.3277 0.5780 0.0000
vt 0.3613 0.6069 0.0000
vt 0.3615 0.6262 0.0000
vt 0.3720 0.6908 0.0000
vt 0.3299 0.6832 0.0000
vt 0.3275 0.7165 0.0000
vt 0.8304 0.1346 0.0000
vt 0.2204 0.7095 0.0000
vt 0.1243 0.7444 0.0000
vt 0.1423 0.7124 0.0000
vt 0.1651 0.7433 0.0000
vt 0.1099 0.7688 0.0000
vt 0.0974 0.7283 0.0000
vt 0.2288 0.7861 0.0000
vt 0.4125 0.7514 0.0000
vt 0.3883 0.7433 0.0000
vt 0.4057 0.7375 0.0000
vt 0.4092 0.7209 0.0000
vt 0.4208 0.7363 0.0000
vt 0.4334 0.7039 0.0000
vt 0.3714 0.7724 0.0000
vt 0.3882 0.7789 0.0000
vt 0.4250 0.7804 0.0000
vt 0.4117 0.7950 0.0000
vt 0.6059 0.7536 0.0000
vt 0.2250 0.9011 0.0000
vt 0.8671 0.1026 0.0000
vt 0.8588 0.1278 0.0000
vt 0.8541 0.0774 0.0000
vt 0.1980 0.7993 0.0000
vt 0.1418 0.8070 0.0000
vt 0.2437 0.8114 0.0000
# 82 texture coords

g RetopoGroup1
f 1/1/1 2/2/2 3/3/3 
f 4/4/4 2/2/2 1/1/1 
f 5/5/5 4/4/4 1/1/1 3/3/3 
f 6/6/6 7/7/7 8/8/8 
f 4/4/4 8/8/8 9/9/9 2/2/2 
f 4/4/4 6/6/6 8/8/8 
f 4/4/4 5/5/5 6/6/6 
f 5/5/5 3/3/3 10/10/10 11/11/11 
f 10/10/10 3/3/3 12/12/12 
f 2/2/2 12/12/12 3/3/3 
f 10/10/10 12/12/12 2/2/2 9/9/9 
f 5/5/5 11/11/11 13/13/13 
f 14/14/14 5/5/5 13/13/13 
f 14/14/14 15/15/15 5/5/5 
f 13/13/13 11/11/11 16/16/16 
f 17/17/17 18/18/18 8/19/8 
f 9/9/9 8/8/8 18/20/18 10/10/10 
f 10/10/10 18/20/18 19/21/19 11/11/11 
f 11/11/11 19/21/19 16/16/16 
f 16/16/16 20/22/20 21/23/21 
f 19/21/19 21/23/21 20/22/20 
f 16/16/16 19/21/19 20/22/20 
f 21/23/21 19/21/19 18/20/18 
f 22/24/22 23/25/23 24/26/24 
f 25/27/25 22/24/22 24/26/24 26/28/26 
f 25/27/25 26/28/26 27/29/27 
f 24/26/24 23/25/23 27/29/27 26/28/26 
f 28/30/28 27/29/27 29/31/29 
f 29/31/29 30/32/30 28/30/28 
f 31/33/31 30/32/30 29/31/29 
f 27/29/27 23/25/23 29/31/29 
f 22/24/22 14/34/14 23/25/23 
f 31/33/31 29/31/29 23/25/23 14/34/14 
f 28/30/28 30/32/30 32/35/32 
f 28/30/28 25/27/25 27/29/27 
f 15/36/15 25/27/25 28/30/28 32/35/32 
f 22/24/22 25/27/25 15/36/15 
f 14/34/14 22/24/22 15/36/15 
f 33/37/33 14/14/14 13/13/13 16/16/16 
f 31/33/31 14/34/14 33/38/33 
f 16/39/16 34/40/34 35/41/35 33/38/33 
f 16/39/16 36/42/36 34/40/34 
f 35/41/35 34/40/34 37/43/37 
f 38/44/38 39/45/39 40/46/40 41/47/41 
f 38/44/38 35/41/35 42/48/42 39/45/39 
f 43/49/43 41/47/41 40/46/40 39/45/39 
f 42/48/42 43/49/43 39/45/39 
f 33/38/33 35/41/35 38/44/38 41/47/41 
f 33/38/33 41/47/41 43/49/43 
f 31/33/31 33/38/33 43/49/43 
f 31/33/31 43/49/43 44/50/44 
f 43/49/43 45/51/45 44/50/44 
f 45/51/45 30/32/30 44/50/44 
f 31/33/31 44/50/44 30/32/30 
f 46/52/46 30/32/30 42/48/42 
f 47/53/47 30/32/30 46/52/46 
f 42/48/42 47/53/47 46/52/46 
f 37/43/37 47/53/47 42/48/42 
f 35/41/35 37/43/37 42/48/42 
f 42/48/42 30/32/30 45/51/45 43/49/43 
f 37/43/37 48/54/48 47/53/47 
f 48/54/48 37/43/37 34/40/34 
f 30/32/30 47/53/47 49/55/49 
f 49/55/49 47/53/47 48/54/48 
f 49/55/49 48/54/48 50/56/50 
f 50/56/50 30/32/30 49/55/49 
f 5/5/5 15/15/15 51/57/51 6/6/6 
f 30/32/30 52/58/52 32/35/32 
f 53/59/53 54/60/54 55/61/55 
f 53/59/53 55/61/55 56/62/56 
f 53/59/53 56/62/56 57/63/57 
f 54/60/54 53/59/53 57/63/57 
f 32/35/32 54/60/54 57/63/57 15/36/15 
f 32/35/32 55/61/55 54/60/54 
f 52/58/52 55/61/55 32/35/32 
f 56/62/56 15/36/15 57/63/57 
f 52/58/52 30/32/30 50/56/50 58/64/58 
f 59/65/59 60/66/60 61/67/61 
f 61/67/61 62/68/62 63/69/63 59/65/59 
f 60/66/60 62/68/62 61/67/61 
f 62/68/62 60/66/60 48/54/48 
f 36/42/36 64/70/64 34/40/34 
f 48/54/48 60/66/60 50/56/50 
f 60/66/60 65/71/65 50/56/50 
f 65/71/65 60/66/60 59/65/59 
f 66/72/66 67/73/67 68/74/68 
f 17/17/17 66/72/66 68/74/68 
f 65/71/65 59/65/59 66/72/66 
f 17/17/17 65/71/65 66/72/66 
f 59/65/59 67/73/67 66/72/66 
f 63/69/63 67/73/67 59/65/59 
f 63/69/63 62/68/62 36/42/36 
f 34/40/34 62/68/62 48/54/48 
f 34/40/34 64/70/64 62/68/62 
f 64/70/64 36/42/36 62/68/62 
f 67/73/67 17/17/17 68/74/68 
f 67/73/67 18/18/18 17/17/17 
f 63/69/63 36/42/36 18/18/18 
f 36/42/36 16/39/16 21/75/21 18/18/18 
f 63/69/63 18/18/18 67/73/67 
f 17/17/17 8/19/8 65/71/65 
f 7/76/7 65/71/65 8/19/8 
f 51/57/51 69/77/69 70/78/70 
f 51/57/51 56/79/56 69/77/69 
f 70/78/70 69/77/69 7/7/7 
f 7/7/7 6/6/6 51/57/51 70/78/70 
f 55/61/55 71/80/71 69/81/69 56/62/56 
f 56/79/56 51/57/51 15/15/15 
f 52/58/52 71/80/71 55/61/55 
f 50/56/50 65/71/65 72/82/72 58/64/58 
f 7/76/7 72/82/72 65/71/65 
f 7/76/7 69/81/69 72/82/72 
f 52/58/52 58/64/58 71/80/71 
f 58/64/58 72/82/72 71/80/71 
f 72/82/72 69/81/69 71/80/71 
# 25 polygons - 90 triangles

