# 3ds Max Wavefront OBJ Exporter v0.97b - (c)2007 guruware
# File Created: 19.11.2016 12:22:04

#
# object Group51994
#

v  2.3803 10.7419 2.4393
v  -0.4552 14.2479 7.6307
v  -0.2720 4.9168 7.7526
v  -8.4156 27.0936 8.6634
v  -9.9345 23.7747 3.2756
v  -9.4605 15.3179 7.4712
v  -7.0267 20.4837 -0.4913
v  -10.8814 14.9217 3.7312
v  -6.9353 43.9829 1.9585
v  -2.8376 48.1729 2.0294
v  -0.2830 40.2342 0.1361
v  -8.5847 6.8360 8.7471
v  -3.1289 15.9852 9.3948
v  -7.7668 0.6531 5.9308
v  -3.3755 3.8383 -1.0634
v  -3.8894 -0.0400 6.3052
v  -0.1344 34.7679 -1.0652
v  -3.7824 29.7252 -1.3889
v  1.4624 5.7094 3.4188
v  -1.1220 10.2178 -0.5530
v  -7.5454 38.2308 8.4122
v  -2.7538 29.0874 9.4808
v  -3.1584 43.5657 8.6463
v  -4.4639 44.7282 6.7839
v  -8.8649 40.1295 3.4178
v  -8.0402 40.0752 6.4716
v  -1.0218 19.9325 -1.7718
v  1.7990 18.4245 1.1392
v  0.7930 42.5184 3.8177
v  1.9221 30.3654 4.1106
v  -3.1437 8.6760 9.5723
v  -6.6012 2.2281 8.4956
v  -1.6728 3.5828 8.8708
v  -5.7582 15.1915 -1.4286
v  -5.2232 5.5958 -0.8507
v  -10.2859 8.6932 2.7484
v  -0.5737 34.3449 7.9728
v  -1.6896 48.7905 4.0699
v  -0.2843 1.4415 5.5604
v  -0.6603 1.1163 7.7241
v  0.5778 19.6319 6.9854
v  -9.7501 30.4218 3.0849
v  -2.1330 44.2261 8.0905
v  -0.6285 40.5673 7.4798
v  -9.7005 3.8725 4.1804
v  -9.3375 3.9277 7.7433
v  0.6894 28.9448 7.3370
v  1.8412 18.8015 4.2692
v  -10.2970 7.8680 6.0874
# 49 vertices

vn 0.9725 -0.1143 -0.2029
vn 0.7150 -0.0211 0.6988
vn 0.7932 -0.0294 0.6083
vn -0.9608 0.0556 0.2716
vn -0.9648 0.0605 0.2558
vn -0.8808 0.0408 0.4718
vn -0.7832 0.0194 -0.6215
vn -0.6092 0.0458 -0.7917
vn -0.7606 0.0350 -0.6482
vn -0.3112 0.1621 -0.9364
vn -0.1654 0.1781 -0.9700
vn -0.1520 0.2008 -0.9678
vn -0.1445 0.0126 0.9894
vn -0.1812 -0.0833 0.9799
vn -0.1342 0.0073 0.9909
vn -0.1113 -0.8762 -0.4689
vn 0.0843 -0.8842 -0.4595
vn 0.1150 -0.9100 -0.3984
vn -0.1327 0.1665 -0.9771
vn -0.2442 0.0850 -0.9660
vn 0.9366 -0.2875 -0.2003
vn 0.6758 -0.1633 -0.7188
vn -0.1265 0.0495 0.9907
vn -0.1444 0.0228 0.9893
vn -0.1184 0.0538 0.9915
vn -0.7433 0.6160 0.2611
vn -0.7868 0.5542 0.2716
vn -0.7803 0.5850 0.2211
vn 0.7063 -0.0429 -0.7066
vn 0.9084 -0.0130 -0.4180
vn 0.9155 0.1685 -0.3653
vn 0.9627 0.2704 -0.0027
vn 0.9951 0.0766 0.0618
vn -0.1213 -0.0422 0.9917
vn -0.2404 -0.4869 0.8397
vn 0.0047 -0.2828 0.9592
vn 0.5611 0.0269 0.8273
vn -0.3482 -0.7200 0.6004
vn -0.0938 -0.7473 0.6578
vn -0.8357 0.0130 0.5491
vn -0.3264 -0.0548 -0.9436
vn -0.0412 -0.0161 -0.9990
vn 0.0882 -0.0524 -0.9947
vn -0.3879 -0.2080 -0.8979
vn -0.6655 -0.1300 -0.7350
vn -0.7157 0.6586 0.2324
vn -0.7541 0.5864 0.2957
vn 0.7857 0.3413 -0.5159
vn 0.6824 0.0667 0.7280
vn 0.4640 0.0503 0.8844
vn 0.5230 0.0014 0.8524
vn 0.9093 0.3677 -0.1949
vn 0.9372 0.0784 -0.3398
vn 0.3144 -0.9066 -0.2817
vn 0.3655 -0.9277 -0.0759
vn 0.0052 -0.5510 0.8345
vn 0.7597 -0.0342 0.6494
vn 0.5553 -0.0012 0.8316
vn -0.6949 0.0687 -0.7158
vn 0.7065 -0.3404 -0.6205
vn 0.7196 0.2007 0.6647
vn 0.7406 0.1252 0.6602
vn -0.5817 -0.4847 -0.6532
vn -0.3426 -0.2888 -0.8940
vn -0.4998 -0.6258 -0.5988
vn -0.8755 -0.4734 0.0966
vn -0.9416 -0.2452 0.2306
vn -0.9557 -0.2864 0.0672
vn 0.7731 0.0305 0.6336
vn 0.9741 -0.0047 0.2259
vn -0.9614 0.0735 0.2651
vn -0.9614 0.0633 0.2677
vn -0.7072 0.0885 -0.7014
vn -0.9536 0.0563 0.2958
vn -0.9637 -0.0669 0.2584
vn -0.9579 0.0745 0.2771
vn -0.4435 -0.3484 0.8258
vn -0.7326 0.6452 0.2169
vn 0.9040 -0.4171 -0.0939
vn 0.8940 -0.1723 0.4136
vn -0.2587 0.6525 0.7122
vn -0.2377 0.6861 0.6876
vn -0.2158 0.7186 0.6611
vn -0.6069 0.4341 0.6657
vn -0.6015 0.4166 0.6817
vn -0.6171 0.4697 0.6314
vn -0.9939 -0.1065 -0.0296
vn -0.9447 0.0810 0.3179
vn -0.6206 0.4832 0.6175
vn -0.1721 0.7769 0.6056
vn 0.6337 -0.0172 0.7734
# 91 vertex normals

vt 0.7132 0.2584 0.0000
vt 0.6002 0.3236 0.0000
vt 0.5979 0.1446 0.0000
vt 0.4356 0.5388 0.0000
vt 0.3418 0.4838 0.0000
vt 0.4171 0.3375 0.0000
vt 0.2504 0.4334 0.0000
vt 0.3501 0.3291 0.0000
vt 0.3561 0.8134 0.0000
vt 0.3740 0.9110 0.0000
vt 0.2287 0.8225 0.0000
vt 0.4461 0.1915 0.0000
vt 0.5400 0.3532 0.0000
vt 0.7702 0.7348 0.0000
vt 0.9814 0.7400 0.0000
vt 0.8126 0.8250 0.0000
vt 0.1831 0.7171 0.0000
vt 0.2208 0.6052 0.0000
vt 0.6896 0.1606 0.0000
vt 0.8075 0.2360 0.0000
vt 0.4280 0.7126 0.0000
vt 0.5243 0.5841 0.0000
vt 0.4653 0.8047 0.0000
vt 0.4355 0.8224 0.0000
vt 0.3645 0.7451 0.0000
vt 0.4052 0.7412 0.0000
vt 0.8195 0.4546 0.0000
vt 0.7396 0.4132 0.0000
vt 0.6429 0.8530 0.0000
vt 0.5553 0.8436 0.0000
vt 0.6431 0.6360 0.0000
vt 0.5407 0.2193 0.0000
vt 0.4652 0.1080 0.0000
vt 0.5618 0.1210 0.0000
vt 0.4114 0.0596 0.0000
vt 0.5016 0.0406 0.0000
vt 0.2173 0.3335 0.0000
vt 0.1324 0.4310 0.0000
vt 0.1315 0.2267 0.0000
vt 0.2333 0.1429 0.0000
vt 0.3385 0.2200 0.0000
vt 0.4900 0.9669 0.0000
vt 0.5448 0.6779 0.0000
vt 0.4449 0.9269 0.0000
vt 0.7196 0.7547 0.0000
vt 0.8761 0.8945 0.0000
vt 0.8236 0.9145 0.0000
vt 0.5837 0.0597 0.0000
vt 0.6169 0.4264 0.0000
vt 0.3474 0.5919 0.0000
vt 0.8152 0.0846 0.0000
vt 0.4700 0.8167 0.0000
vt 0.5151 0.7792 0.0000
vt 0.3686 0.1366 0.0000
vt 0.2086 0.0909 0.0000
vt 0.4269 0.1433 0.0000
vt 0.5902 0.5951 0.0000
vt 0.6761 0.4155 0.0000
vt 0.3944 0.2083 0.0000
vt 0.6413 0.0617 0.0000
# 60 texture coords

g Group51994
s 1
f 1/1/1 2/2/2 3/3/3 
f 4/4/4 5/5/5 6/6/6 
s 2
f 5/5/7 7/7/8 8/8/9 
f 9/9/10 10/10/11 11/11/12 
s 4
f 4/4/13 12/12/14 13/13/15 
s 8
f 14/14/16 15/15/17 16/16/18 
s 2
f 9/9/10 17/17/19 18/18/20 
s 1
f 19/19/21 20/20/22 1/1/1 
s 4
f 21/21/23 22/22/24 23/23/25 
f 24/24/26 25/25/27 26/26/28 
s 1
f 20/20/22 27/27/29 28/28/30 
f 11/29/31 29/30/32 30/31/33 
s 4
f 31/32/34 32/33/35 33/34/36 
s 1
f 3/3/3 2/2/2 31/32/37 
s 4
f 32/33/35 14/35/38 16/36/39 
s 1
f 12/12/40 4/4/4 6/6/6 
s 2
f 34/37/41 27/38/42 20/39/43 
f 35/40/44 36/41/45 34/37/41 
s 4
f 10/10/46 9/9/47 24/24/26 
s 1
f 11/29/31 10/42/48 29/30/32 
f 37/43/49 23/23/50 22/22/51 
f 10/42/48 38/44/52 29/30/32 
f 17/45/53 28/28/30 27/27/29 
s 2
f 17/17/19 27/38/42 18/18/20 
s 8
f 15/15/17 39/46/54 16/16/18 
s 1
f 1/1/1 3/3/3 19/19/21 
s 8
f 16/16/18 39/46/54 40/47/55 
s 4
f 40/48/56 32/33/35 16/36/39 
f 22/22/24 4/4/13 13/13/15 
s 1
f 41/49/57 22/22/51 13/13/58 
s 2
f 7/7/8 9/9/10 18/18/20 
f 18/18/20 27/38/42 34/37/41 
s 4
f 24/24/26 9/9/47 25/25/27 
s 2
f 42/50/59 9/9/10 7/7/8 
f 34/37/41 20/39/43 35/40/44 
s 1
f 19/19/21 15/51/60 20/20/22 
f 29/30/32 43/52/61 44/53/62 
f 44/53/62 30/31/33 29/30/32 
s 2
f 45/54/63 15/55/64 14/35/65 
s 1
f 14/35/66 46/56/67 45/54/68 
f 17/45/53 30/31/33 28/28/30 
f 30/31/33 47/57/69 48/58/70 
f 25/25/71 42/50/72 4/4/4 
s 2
f 25/25/73 9/9/10 42/50/59 
s 1
f 5/5/5 8/8/74 6/6/6 
f 49/59/75 45/54/68 46/56/67 
f 47/57/69 22/22/51 41/49/57 
f 47/57/69 41/49/57 48/58/70 
s 2
f 20/39/43 15/55/64 35/40/44 
f 35/40/44 15/55/64 45/54/63 
s 1
f 4/4/4 26/26/76 25/25/71 
s 4
f 21/21/23 4/4/13 22/22/24 
s 1
f 11/29/31 30/31/33 17/45/53 
s 2
f 11/11/12 17/17/19 9/9/10 
s 4
f 31/32/34 12/12/14 32/33/35 
f 46/56/77 14/35/38 32/33/35 
s 1
f 37/43/49 47/57/69 30/31/33 
f 37/43/49 22/22/51 47/57/69 
s 2
f 7/7/8 18/18/20 34/37/41 
f 36/41/45 7/7/8 34/37/41 
s 1
f 2/2/2 1/1/1 41/49/57 
f 41/49/57 13/13/58 2/2/2 
f 29/30/32 38/44/52 43/52/61 
s 4
f 38/44/78 10/10/46 24/24/26 
s 1
f 19/19/21 39/60/79 15/51/60 
f 39/60/79 19/19/21 40/48/80 
f 12/12/40 49/59/75 46/56/67 
s 4
f 32/33/35 12/12/14 46/56/77 
s 2
f 38/44/81 24/24/82 43/52/83 
s 8
f 23/23/84 24/24/85 26/26/86 
s 1
f 28/28/30 30/31/33 48/58/70 
f 20/20/22 28/28/30 1/1/1 
s 2
f 36/41/45 8/8/9 7/7/8 
s 1
f 8/8/74 36/41/87 49/59/75 
f 4/4/4 21/21/88 26/26/76 
s 8
f 26/26/86 21/21/89 23/23/84 
s 1
f 28/28/30 48/58/70 1/1/1 
f 48/58/70 41/49/57 1/1/1 
f 42/50/72 5/5/5 4/4/4 
s 2
f 42/50/59 7/7/8 5/5/7 
f 24/24/82 23/23/90 43/52/83 
s 1
f 44/53/62 43/52/61 23/23/50 
s 4
f 33/34/36 32/33/35 40/48/56 
s 1
f 31/32/37 33/34/91 3/3/3 
f 6/6/6 8/8/74 49/59/75 
f 12/12/40 6/6/6 49/59/75 
f 3/3/3 40/48/80 19/19/21 
f 3/3/3 33/34/91 40/48/80 
f 23/23/50 37/43/49 44/53/62 
f 30/31/33 44/53/62 37/43/49 
s 2
f 36/41/45 35/40/44 45/54/63 
s 1
f 49/59/75 36/41/87 45/54/68 
f 13/13/58 31/32/37 2/2/2 
s 4
f 13/13/15 12/12/14 31/32/34 
# 0 polygons - 94 triangles

