# 3ds Max Wavefront OBJ Exporter v0.97b - (c)2007 guruware
# File Created: 30.10.2016 17:29:16

#
# object RetopoGroup1
#

v  -0.2956 0.7783 0.8911
v  0.0279 1.2063 -0.5958
v  -1.3693 0.4114 -0.0929
v  0.7658 -0.9065 -0.8308
v  -0.4917 -1.1207 -0.8729
v  1.0754 0.3291 -0.9145
v  0.0478 -0.5033 1.0700
v  0.9690 -0.1299 0.8813
v  0.5252 0.4995 0.9382
v  -0.9052 -0.7422 -0.6525
v  0.1040 -1.2767 -0.1681
v  -0.2824 -0.6837 0.6910
v  0.9613 0.5331 0.3684
v  0.7223 0.8584 0.7215
v  1.3568 -0.9944 0.2497
v  0.9796 -0.8396 -0.4138
v  1.2094 0.1656 -0.0169
v  -0.3814 0.3873 -1.2224
v  0.0964 0.3683 -1.0665
v  0.5449 -0.8979 -0.4302
v  0.0397 -0.7105 0.7149
# 21 vertices

vn -0.3812 0.5611 0.7347
vn 0.0115 0.9389 -0.3439
vn -0.9623 0.2613 0.0756
vn 0.4228 -0.6704 -0.6097
vn -0.3380 -0.7624 -0.5518
vn 0.7514 0.2691 -0.6025
vn -0.1148 -0.4596 0.8807
vn 0.6268 -0.0635 0.7766
vn 0.2132 0.2563 0.9428
vn -0.8380 -0.4819 -0.2559
vn -0.0239 -0.9991 0.0341
vn -0.5256 -0.6077 0.5954
vn 0.8701 0.4870 0.0757
vn 0.5159 0.7244 0.4572
vn 0.7750 -0.6059 0.1794
vn 0.6895 -0.6295 -0.3581
vn 0.5306 0.6086 -0.5899
vn -0.2342 0.2430 -0.9413
vn 0.2281 0.1558 -0.9611
vn 0.2552 -0.9398 -0.2272
vn 0.0307 -0.8802 0.4735
# 21 vertex normals

vt 0.3939 0.0781 0.0000
vt 0.5125 0.7267 0.0000
vt 0.0000 0.5073 0.0000
vt 0.7832 0.1491 0.0000
vt 0.3219 0.0628 0.0000
vt 0.8968 0.6467 0.0000
vt 0.5198 0.3115 0.0000
vt 0.8577 0.4619 0.0000
vt 0.6949 0.7153 0.0000
vt 0.1702 0.7514 0.0000
vt 0.5404 0.5401 0.0000
vt 0.3987 0.1653 0.0000
vt 0.0823 0.4619 0.0000
vt 0.3061 0.7289 0.0000
vt 0.1520 0.8599 0.0000
vt 0.7672 0.1520 0.0000
vt 0.8549 0.3061 0.0000
vt 1.0000 0.3578 0.0000
vt 0.3578 0.1137 0.0000
vt 0.6473 0.1760 0.0000
vt 0.4741 0.5809 0.0000
vt 0.5073 0.6799 0.0000
vt 1.0000 0.6702 0.0000
vt 0.7514 0.2153 0.0000
vt 0.5377 0.6625 0.0000
vt 0.8968 0.8657 0.0000
vt 0.8657 0.6467 0.0000
vt 0.1653 0.2389 0.0000
vt 0.3987 0.2389 0.0000
vt 0.3939 0.8276 0.0000
vt 0.0000 0.6799 0.0000
vt 0.7022 0.6544 0.0000
vt 0.3219 0.8475 0.0000
vt 0.7832 0.8292 0.0000
vt 0.8616 0.6473 0.0000
vt 0.3624 1.0000 0.0000
vt 0.5125 1.0000 0.0000
vt 0.5168 0.2280 0.0000
vt 1.0000 0.1137 0.0000
vt 0.5168 0.1549 0.0000
vt 0.8577 0.0823 0.0000
vt 0.5198 0.0000 0.0000
vt 0.0000 0.3115 0.0000
vt 0.0781 0.8276 0.0000
vt 0.8549 0.7289 0.0000
vt 0.9459 0.5809 0.0000
vt 0.8616 0.1760 0.0000
vt 0.3624 0.6702 0.0000
vt 0.1702 0.2153 0.0000
vt 0.7672 0.8599 0.0000
vt 0.8292 0.1491 0.0000
# 51 texture coords

g RetopoGroup1
f 1/1/1 2/2/2 3/3/3 
f 4/4/4 5/5/5 6/6/6 
f 7/7/7 8/8/8 9/9/9 
f 10/10/10 11/11/11 12/12/12 
f 8/13/8 13/14/13 14/15/14 
f 2/2/2 14/16/14 13/17/13 
f 15/18/15 12/12/12 11/11/11 
f 15/19/15 16/20/16 17/21/17 
f 3/22/3 18/23/18 10/24/10 
f 19/25/19 6/6/6 5/5/5 
f 13/17/13 6/26/6 2/2/2 
f 13/14/13 16/20/16 6/27/6 
f 3/22/3 10/24/10 12/28/12 
f 12/29/12 1/30/1 3/31/3 
f 20/32/20 5/33/5 4/34/4 
f 20/32/20 16/35/16 15/18/15 
f 2/2/2 18/36/18 3/3/3 
f 2/37/2 6/6/6 19/25/19 
f 15/19/15 17/21/17 8/13/8 
f 8/8/8 21/38/21 15/39/15 
f 21/40/21 8/41/8 7/42/7 
f 7/43/7 1/44/1 12/28/12 
f 1/1/1 14/16/14 2/2/2 
f 9/9/9 1/30/1 7/7/7 
f 8/13/8 17/21/17 13/14/13 
f 13/45/13 17/46/17 16/47/16 
f 2/37/2 19/25/19 18/48/18 
f 5/5/5 18/48/18 19/25/19 
f 11/11/11 5/33/5 20/32/20 
f 11/11/11 20/32/20 15/18/15 
f 10/49/10 18/48/18 5/5/5 
f 10/10/10 5/33/5 11/11/11 
f 9/9/9 8/8/8 14/50/14 
f 1/30/1 9/9/9 14/50/14 
f 21/40/21 7/42/7 12/12/12 
f 12/12/12 15/18/15 21/40/21 
f 16/35/16 20/32/20 4/34/4 
f 4/51/4 6/27/6 16/20/16 
# 0 polygons - 38 triangles

