# 3ds Max Wavefront OBJ Exporter v0.97b - (c)2007 guruware
# File Created: 30.10.2016 20:14:51

#
# object LP_UV
#

v  -0.6083 0.8973 0.5788
v  0.0495 1.0723 0.6160
v  -0.4334 1.0867 0.9368
v  -0.2957 1.8655 -0.5088
v  0.3425 2.4088 -0.6977
v  0.3290 1.4720 -0.4882
v  0.3915 2.3821 0.1552
v  0.6591 1.5306 -0.0469
v  -0.4491 2.2056 0.5415
v  -0.4368 2.7433 -0.2124
v  0.0792 0.0158 -0.0531
v  0.6706 0.4042 -0.1181
v  0.3870 0.0140 0.2500
v  -0.5028 0.7970 -0.7294
v  0.6727 0.5226 0.4204
v  0.3617 1.8099 0.6164
v  0.3809 1.1737 0.8521
v  -0.6822 1.2292 -0.0679
v  -0.5779 1.1252 -0.5051
v  -0.7530 0.7169 -0.0401
v  -0.6294 1.4822 0.4004
v  -0.0889 1.5793 0.9352
v  0.0356 3.0686 -0.0682
v  0.0053 2.1047 0.3484
v  0.7849 1.2606 -0.1096
v  0.5242 0.8187 0.7488
v  0.6109 0.7639 0.1444
v  0.6959 0.5025 -0.3433
v  0.2361 0.4419 -0.5170
v  0.2657 0.7747 -0.3160
v  -0.3045 2.9096 0.0708
v  -0.1582 0.3512 -0.2522
v  0.0103 0.0441 0.4922
v  -0.7356 0.4769 0.2400
v  0.0189 0.5348 0.8144
v  -0.4035 0.6430 0.6018
v  -0.1288 0.8209 -0.5826
v  -0.6455 0.6954 -0.5293
v  0.6497 0.7204 -0.5066
v  -0.3887 1.7999 0.5991
v  0.1912 2.9904 -0.2028
v  0.2394 0.1677 -0.2351
v  -0.1870 0.4431 -0.6252
v  -0.4718 1.1181 0.2250
v  0.6967 0.8350 -0.1175
v  -0.6641 1.9023 0.0412
# 46 vertices

vn -0.8369 -0.1192 0.5342
vn -0.0752 -0.2397 0.9679
vn -0.3130 -0.3823 0.8694
vn -0.5479 0.1571 -0.8217
vn 0.4472 0.3081 -0.8397
vn 0.4448 -0.0086 -0.8956
vn 0.8399 0.4121 0.3533
vn 0.9626 0.2576 -0.0841
vn -0.4789 0.3513 0.8045
vn -0.8011 0.4268 -0.4196
vn -0.2400 -0.9104 -0.3370
vn 0.8553 -0.4962 -0.1491
vn 0.4836 -0.8591 0.1676
vn -0.3640 -0.1022 -0.9258
vn 0.9139 -0.1899 0.3587
vn 0.6009 0.4430 0.6653
vn 0.3665 -0.1084 0.9241
vn -0.9979 0.0638 0.0106
vn -0.8641 0.2437 -0.4404
vn -0.9771 -0.1846 -0.1058
vn -0.9527 0.0722 0.2953
vn -0.0350 0.2944 0.9551
vn 0.1039 0.9840 0.1448
vn 0.0363 0.4752 0.8791
vn 0.9470 0.2462 -0.2063
vn 0.6012 -0.0818 0.7949
vn 0.9890 -0.0220 0.1464
vn 0.7230 -0.4479 -0.5260
vn 0.2415 -0.2377 -0.9409
vn 0.1226 -0.0088 -0.9924
vn -0.4924 0.7614 0.4216
vn -0.4250 -0.8354 -0.3486
vn -0.1721 -0.8495 0.4987
vn -0.8442 -0.5219 0.1222
vn -0.0731 -0.2229 0.9721
vn -0.5186 -0.4040 0.7535
vn 0.4494 -0.0765 -0.8900
vn -0.8304 -0.3984 -0.3895
vn 0.3972 -0.2659 -0.8784
vn -0.5430 0.4104 0.7326
vn 0.5083 0.8107 -0.2904
vn 0.2745 -0.7889 -0.5497
vn -0.0032 -0.6385 -0.7696
vn -0.9925 -0.0074 0.1223
vn 0.9853 -0.1284 0.1124
vn -0.8760 0.4556 -0.1581
# 46 vertex normals

vt 0.1164 0.2305 0.0000
vt 0.5206 0.2094 0.0000
vt 0.2239 0.0275 0.0000
vt 0.3085 0.6003 0.0000
vt 0.7006 0.7684 0.0000
vt 0.6924 0.4786 0.0000
vt 0.4708 0.7601 0.0000
vt 0.5854 0.4967 0.0000
vt 0.9545 0.7684 0.0000
vt 0.8474 0.6003 0.0000
vt 0.2517 0.7055 0.0000
vt 0.6793 0.8719 0.0000
vt 0.5388 0.5889 0.0000
vt 0.9023 0.6258 0.0000
vt 0.7280 0.4170 0.0000
vt 0.1812 0.2697 0.0000
vt 0.3204 0.1848 0.0000
vt 0.4170 0.0275 0.0000
vt 0.6258 0.1482 0.0000
vt 0.2092 0.5831 0.0000
vt 0.0756 0.3863 0.0000
vt 0.5973 0.4034 0.0000
vt 0.8453 0.3713 0.0000
vt 0.5816 0.2449 0.0000
vt 0.2305 0.3008 0.0000
vt 0.0275 0.3594 0.0000
vt 0.3317 0.4817 0.0000
vt 0.7125 0.5831 0.0000
vt 0.4355 0.5117 0.0000
vt 0.7243 0.3863 0.0000
vt 0.5120 0.9725 0.0000
vt 0.2142 0.7055 0.0000
vt 0.4934 0.6743 0.0000
vt 0.6210 0.4132 0.0000
vt 0.1341 0.2765 0.0000
vt 0.4769 0.2595 0.0000
vt 0.9178 0.1786 0.0000
vt 0.6353 0.1599 0.0000
vt 0.6535 0.2628 0.0000
vt 0.2218 0.8719 0.0000
vt 0.3031 0.9233 0.0000
vt 0.3930 0.7018 0.0000
vt 0.4965 0.2797 0.0000
vt 0.0382 0.4227 0.0000
vt 0.5018 0.1886 0.0000
vt 0.2423 0.2221 0.0000
vt 0.4965 0.0368 0.0000
vt 0.4111 0.2771 0.0000
vt 0.0275 0.5816 0.0000
vt 0.0935 0.8590 0.0000
vt 0.8357 0.4786 0.0000
vt 0.8461 0.2460 0.0000
vt 0.4355 0.0284 0.0000
vt 0.4934 0.3612 0.0000
vt 0.2514 0.2190 0.0000
vt 0.2190 0.5800 0.0000
vt 0.6077 0.9483 0.0000
vt 0.6738 0.9483 0.0000
vt 0.6353 0.8520 0.0000
vt 0.6373 0.6921 0.0000
vt 0.3753 0.9134 0.0000
vt 0.4312 0.3691 0.0000
vt 0.9178 0.7535 0.0000
vt 0.6255 0.2815 0.0000
vt 0.7535 0.1786 0.0000
vt 0.8123 0.2765 0.0000
vt 0.5206 0.3549 0.0000
vt 0.0382 0.1707 0.0000
vt 0.7125 0.2092 0.0000
vt 0.5354 0.6117 0.0000
vt 0.2142 0.2517 0.0000
vt 0.3085 0.8474 0.0000
vt 0.0821 0.5354 0.0000
vt 0.7280 0.0275 0.0000
vt 0.9036 0.1848 0.0000
vt 0.5388 0.0280 0.0000
vt 0.3930 0.1318 0.0000
vt 0.2797 0.0368 0.0000
vt 0.7018 0.1318 0.0000
vt 0.5889 0.0280 0.0000
vt 0.8894 0.2460 0.0000
vt 0.2514 0.5800 0.0000
vt 0.3753 0.1602 0.0000
vt 0.1164 0.3008 0.0000
vt 0.8952 0.4967 0.0000
vt 0.9725 0.4132 0.0000
vt 0.4227 0.1707 0.0000
vt 0.7308 0.7601 0.0000
vt 0.2239 0.3594 0.0000
vt 0.5187 0.9233 0.0000
vt 0.5120 0.5975 0.0000
vt 0.2218 0.6793 0.0000
vt 0.3031 0.5187 0.0000
vt 0.5975 0.9725 0.0000
vt 0.8590 0.2383 0.0000
vt 0.9725 0.2697 0.0000
vt 0.0935 0.2383 0.0000
# 97 texture coords

g LP_UV
f 1/1/1 2/2/2 3/3/3 
f 4/4/4 5/5/5 6/6/6 
f 7/7/7 8/8/8 5/9/5 
f 4/10/4 9/11/9 10/12/10 
f 11/13/11 12/14/12 13/15/13 
f 4/4/4 6/6/6 14/16/14 
f 15/17/15 13/18/13 12/19/12 
f 16/20/16 17/21/17 8/8/8 
f 18/22/18 19/23/19 20/24/20 
f 1/25/1 3/26/3 21/27/21 
f 16/28/16 22/29/22 17/30/17 
f 23/31/23 9/32/9 24/33/24 
f 25/34/25 26/35/26 27/36/27 
f 28/37/28 29/38/29 30/39/30 
f 5/5/5 4/4/4 10/40/10 
f 23/31/23 31/41/31 9/32/9 
f 32/42/32 33/43/33 34/44/34 
f 35/45/35 36/46/36 33/47/33 
f 14/16/14 6/6/6 37/48/37 
f 20/49/20 38/50/38 32/42/32 
f 6/51/6 5/9/5 8/8/8 
f 8/8/8 39/52/39 6/51/6 
f 22/53/22 24/54/24 40/55/40 
f 40/56/40 21/27/21 3/26/3 
f 5/5/5 10/40/10 41/57/41 
f 7/7/7 5/9/5 41/58/41 
f 11/13/11 29/59/29 42/60/42 
f 38/50/38 43/61/43 32/42/32 
f 21/27/21 44/62/44 1/25/1 
f 4/10/4 19/23/19 18/22/18 
f 29/59/29 28/63/28 12/14/12 
f 45/64/45 12/19/12 28/65/28 
f 33/47/33 26/66/26 35/45/35 
f 2/67/2 17/30/17 22/29/22 
f 1/25/1 44/62/44 20/24/20 
f 33/47/33 36/46/36 34/68/34 
f 23/31/23 24/33/24 16/28/16 
f 16/69/16 24/54/24 22/53/22 
f 4/10/4 18/22/18 46/70/46 
f 9/71/9 4/72/4 46/73/46 
f 15/17/15 27/36/27 26/35/26 
f 13/74/13 15/75/15 26/66/26 
f 11/76/11 32/77/32 29/38/29 
f 33/78/33 32/79/32 11/80/11 
f 6/6/6 30/39/30 37/48/37 
f 39/81/39 30/39/30 6/6/6 
f 40/56/40 9/11/9 46/70/46 
f 9/32/9 40/82/40 24/33/24 
f 43/61/43 29/59/29 32/42/32 
f 43/83/43 30/39/30 29/38/29 
f 2/67/2 1/84/1 35/45/35 
f 2/67/2 35/45/35 26/66/26 
f 39/81/39 8/85/8 25/86/25 
f 17/21/17 25/34/25 8/8/8 
f 34/87/34 1/25/1 20/24/20 
f 20/49/20 32/42/32 34/44/34 
f 27/36/27 15/17/15 12/19/12 
f 12/19/12 45/64/45 27/36/27 
f 7/88/7 23/31/23 16/28/16 
f 7/7/7 16/20/16 8/8/8 
f 2/67/2 22/29/22 3/89/3 
f 40/82/40 3/89/3 22/29/22 
f 10/12/10 9/11/9 31/90/31 
f 23/91/23 10/92/10 31/93/31 
f 23/94/23 7/7/7 41/58/41 
f 41/57/41 10/40/10 23/31/23 
f 38/95/38 20/24/20 19/23/19 
f 14/96/14 19/23/19 4/10/4 
f 46/70/46 18/22/18 21/27/21 
f 46/70/46 21/27/21 40/56/40 
f 17/30/17 2/67/2 26/66/26 
f 26/35/26 25/34/25 17/21/17 
f 28/65/28 39/52/39 45/64/45 
f 30/39/30 39/81/39 28/37/28 
f 36/46/36 35/45/35 1/84/1 
f 36/46/36 1/84/1 34/68/34 
f 13/74/13 26/66/26 33/47/33 
f 11/13/11 13/15/13 33/43/33 
f 21/27/21 18/22/18 44/62/44 
f 18/22/18 20/24/20 44/62/44 
f 12/14/12 11/13/11 42/60/42 
f 12/14/12 42/60/42 29/59/29 
f 37/48/37 43/83/43 14/16/14 
f 30/39/30 43/83/43 37/48/37 
f 14/16/14 43/83/43 38/97/38 
f 38/95/38 19/23/19 14/96/14 
f 45/64/45 25/34/25 27/36/27 
f 25/34/25 45/64/45 39/52/39 
# 0 polygons - 88 triangles

